<svg width="40" height="40" viewBox="0 0 40 40" fill="none" xmlns="http://www.w3.org/2000/svg">
<path d="M2.5 14.9445C2.5 10.5885 2.5 8.4105 3.34772 6.74674C4.09341 5.28326 5.28326 4.09341 6.74674 3.34772C8.4105 2.5 10.5885 2.5 14.9445 2.5H25.0555C29.4115 2.5 31.5895 2.5 33.2533 3.34772C34.7168 4.09341 35.9066 5.28326 36.6523 6.74674C37.5 8.4105 37.5 10.5885 37.5 14.9445V25.0555C37.5 29.4115 37.5 31.5895 36.6523 33.2533C35.9066 34.7168 34.7168 35.9066 33.2533 36.6523C31.5895 37.5 29.4115 37.5 25.0555 37.5H14.9445C10.5885 37.5 8.4105 37.5 6.74674 36.6523C5.28326 35.9066 4.09341 34.7168 3.34772 33.2533C2.5 31.5895 2.5 29.4115 2.5 25.0555V14.9445Z" fill="white"/>
<path d="M27.5644 10.6537L20.0805 16.4942L12.4255 10.6537V10.6553L12.4348 10.6632V18.8415L19.9943 24.8082L27.5644 19.0719V10.6537Z" fill="#EA4335"/>
<path d="M29.5289 9.23298L27.5635 10.6536V19.0719L33.7479 14.3237V11.4634C33.7479 11.4634 32.9973 7.37822 29.5289 9.23298Z" fill="#FBBC05"/>
<path d="M27.5635 19.0719V29.9905H32.3035C32.3035 29.9905 33.6524 29.8516 33.7494 28.3141V14.3237L27.5635 19.0719Z" fill="#34A853"/>
<path d="M12.4351 30.0001V18.8415L12.4255 18.8336L12.4351 30.0001Z" fill="#C5221F"/>
<path d="M12.4252 10.6551L10.4706 9.24228C7.00224 7.38752 6.25 11.4712 6.25 11.4712V14.3314L12.4252 18.8334V10.6551Z" fill="#C5221F"/>
<path d="M12.4255 10.6555V18.8339L12.4351 18.8418V10.6634L12.4255 10.6555Z" fill="#C5221F"/>
<path d="M6.25 14.3335V28.3239C6.34557 29.863 7.69591 30.0004 7.69591 30.0004H12.436L12.4252 18.8339L6.25 14.3335Z" fill="#4285F4"/>
</svg>
