<svg width="47" height="40" viewBox="0 0 47 40" fill="none" xmlns="http://www.w3.org/2000/svg">
<path d="M39.1667 33.3334H7.83332C5.67916 33.3334 3.91666 31.8334 3.91666 30V10C3.91666 8.16669 5.67916 6.66669 7.83332 6.66669H39.1667C41.3208 6.66669 43.0833 8.16669 43.0833 10V30C43.0833 31.8334 41.3208 33.3334 39.1667 33.3334Z" fill="#FAFAFA"/>
<path opacity="0.12" d="M39.1667 6.66669H7.83332C5.67916 6.66669 3.91666 8.16669 3.91666 10V30C3.91666 31.8334 5.67916 33.3334 7.83332 33.3334H39.1667C41.3208 33.3334 43.0833 31.8334 43.0833 30V10C43.0833 8.16669 41.3208 6.66669 39.1667 6.66669ZM41.125 30C41.125 31 40.3417 31.6667 39.1667 31.6667H7.83332C6.65832 31.6667 5.87499 31 5.87499 30V10C5.87499 9.00002 6.65832 8.33335 7.83332 8.33335H39.1667C40.3417 8.33335 41.125 9.00002 41.125 10V30Z" fill="#020202"/>
<path d="M25.4583 20C25.4583 21.5 24.675 22.8333 23.5 23.6667C24.4792 24.5 25.85 25 27.4167 25C30.7458 25 33.2917 22.8333 33.2917 20C33.2917 17.1667 30.7458 15 27.4167 15C25.85 15 24.4792 15.5 23.5 16.3333C24.675 17.1667 25.4583 18.5 25.4583 20Z" fill="#FF9900"/>
<path d="M21.5417 20C21.5417 18.5 22.325 17.1667 23.5 16.3333C22.5208 15.5 21.15 15 19.5833 15C16.2542 15 13.7083 17.1667 13.7083 20C13.7083 22.8333 16.2542 25 19.5833 25C21.15 25 22.5208 24.5 23.5 23.6667C22.325 22.8333 21.5417 21.5 21.5417 20Z" fill="#CC0000"/>
</svg>
