<svg width="34" height="34" viewBox="0 0 34 34" fill="none" xmlns="http://www.w3.org/2000/svg">
<path d="M25.3236 24.8838C24.7497 24.885 24.1811 24.7727 23.6508 24.5531C23.1205 24.3335 22.6389 24.0111 22.2339 23.6045L17.7714 19.142C17.6134 18.992 17.4038 18.9083 17.1859 18.9083C16.968 18.9083 16.7585 18.992 16.6005 19.142L12.121 23.6215C11.7161 24.0283 11.2345 24.3508 10.7042 24.5704C10.1738 24.79 9.60523 24.9023 9.03124 24.9008H8.15149L13.804 30.5533C15.5677 32.317 18.4301 32.317 20.1939 30.5533L25.8612 24.8838H25.3236ZM9.03124 9.09928C10.2 9.09928 11.2965 9.55403 12.121 10.3785L16.6005 14.858C16.6775 14.9351 16.7689 14.9963 16.8695 15.038C16.9702 15.0798 17.078 15.1012 17.187 15.1012C17.2959 15.1012 17.4038 15.0798 17.5045 15.038C17.6051 14.9963 17.6965 14.9351 17.7735 14.858L22.236 10.3955C22.6407 9.98897 23.1219 9.66661 23.6518 9.44704C24.1818 9.22748 24.75 9.11506 25.3236 9.11628H25.8612L20.1939 3.4489C19.3463 2.60193 18.1971 2.12616 16.9989 2.12616C15.8007 2.12616 14.6515 2.60193 13.804 3.4489L8.15149 9.1014L9.03124 9.09928Z" fill="#3CBA86"/>
<path d="M30.5511 13.804L27.1256 10.3785C27.0487 10.4101 26.9665 10.4267 26.8834 10.4274H25.3258C24.5204 10.4274 23.732 10.7546 23.1646 11.3241L18.7021 15.7866C18.5037 15.9861 18.2677 16.1445 18.0079 16.2525C17.7481 16.3605 17.4695 16.4161 17.1881 16.4161C16.9067 16.4161 16.628 16.3605 16.3682 16.2525C16.1084 16.1445 15.8725 15.9861 15.674 15.7866L11.1945 11.305C10.6198 10.7327 9.84235 10.4104 9.03125 10.4083H7.11875C7.03947 10.4076 6.96097 10.3925 6.88713 10.3636L3.44888 13.804C1.68513 15.5678 1.68513 18.4301 3.44888 20.196L6.88713 23.6343C6.96016 23.6049 7.03793 23.589 7.11663 23.5875H9.03125C9.83875 23.5875 10.625 23.2624 11.1945 22.6929L15.6719 18.2113C16.0804 17.8223 16.6229 17.6053 17.187 17.6053C17.7511 17.6053 18.2936 17.8223 18.7021 18.2113L23.1646 22.6738C23.732 23.2433 24.5204 23.5684 25.3258 23.5684H26.8834C26.9684 23.5684 27.0513 23.5896 27.1256 23.6194L30.5511 20.1939C32.3149 18.4301 32.3149 15.5678 30.5511 13.804Z" fill="#3CBA86"/>
</svg>
